<svg xmlns="http://www.w3.org/2000/svg" id="Group_200" width="79.932" height="56.093" viewBox="0 0 79.932 56.093">
    <g id="Group_43">
        <path id="Path_199" d="M2636.452 2002.694l13.641-8.04 6.213 10.537a18.28 18.28 0 0 1 9.693-2.84c4.07.076 8.537 1.5 10.426 1.856a13.162 13.162 0 0 0 2.18-15.85c-4.6-7.655-13.027-7.231-17.671-4.561l-26.436 15.582a12.926 12.926 0 0 0-4.564 17.66c4.061 6.891 11.84 7.99 18.144 4.284a14.716 14.716 0 0 1 .289-4.584c-4.643 3.2-10.823 4.654-15.108-1.645-2.531-3.712-1.272-9.665 3.193-12.399z" transform="translate(-2628.171 -1982.043)"/>
        <path id="Path_200" d="M2803.633 2120.412l-30.062-6.238c-7.973-1.059-13.206 2.5-15.251 10.019-1.842 6.78 2.707 13.313 10.011 15.242l30.056 6.234c5.241.606 13.213-.875 15.25-10.013 1.798-8.069-4.411-14.014-10.004-15.244zm6.236 14.453c-1.532 7.478-8.336 7.532-10.682 7.041l-15.523-3.221 3.677-17.722 15.5 3.217a9.026 9.026 0 0 1 7.028 10.685z" transform="translate(-2734.021 -2089.694)"/>
    </g>
</svg>
