<svg xmlns="http://www.w3.org/2000/svg" id="Group_202" width="53.307" height="63.071" viewBox="0 0 53.307 63.071">
    <path id="Path_147" d="M1672.657 1957.978a15.436 15.436 0 1 0-15.437-15.437 15.436 15.436 0 0 0 15.437 15.437z" transform="translate(-1646.004 -1927.107)"/>
    <path id="Path_148" d="M1603.293 2160.177a55.383 55.383 0 0 0 16.075-6.15 6.149 6.149 0 0 1 6.152 6.15c0 3.585-4.324 7.739-7.578 10.358h23.118v-8.735c0-12.469-11.933-19.608-26.654-19.608s-26.653 7.139-26.653 19.608v8.734h23.007c-3.24-2.555-7.467-6.606-7.467-10.357z" transform="translate(-1587.753 -2107.464)"/>
</svg>
