<svg xmlns="http://www.w3.org/2000/svg" width="22" height="22" viewBox="0 0 22 22">
    <g transform="translate(111.949 -1404.051)">
        <circle cx="11" cy="11" r="11" fill="#613983" transform="translate(-111.949 1404.051)"/>
        <path fill="#fff" d="M3.93 13.923q-.238-.523-.291-.655l-.4-.933q-.185-.43-.318-.7l-.245-.5A4.65 4.65 0 0 0 1 9.158 3.323 3.323 0 0 1 3.017 8.2a1.092 1.092 0 0 1 .927.453 4.259 4.259 0 0 1 .576 1.572A34.967 34.967 0 0 1 7.2 5.723 6.009 6.009 0 0 1 8.672 4.24a3.16 3.16 0 0 1 1.628-.364 4.408 4.408 0 0 1 1.377.245A17.059 17.059 0 0 0 7.9 7.84a44.906 44.906 0 0 0-3.97 6.083z" transform="translate(-107.285 1406.151)"/>
    </g>
</svg>
