<?xml version="1.0" encoding="UTF-8"?>
<!DOCTYPE svg PUBLIC "-//W3C//DTD SVG 1.1//EN" "http://www.w3.org/Graphics/SVG/1.1/DTD/svg11.dtd">
<svg xmlns="http://www.w3.org/2000/svg" xmlns:xlink="http://www.w3.org/1999/xlink">
<symbol id="care" viewBox="0 0 65.823 50.834">
	<path d="M59.806 48.942h6.018l-2.951-18.711s-1.946 12.415-2.649 17.332a5.763 5.763 0 01-.418 1.379zM36.697 39.991l2.133-.071v-4.494c0-7.7-2.99-11.228-8.6-12.363a42.681 42.681 0 00-7.133-.464c-1.457 0-3.5.107-5.37.227a7.449 7.449 0 01-1.507 5.919 7.955 7.955 0 01-4.507 2.86 7.49 7.49 0 01-4.358-.235l-.013 17.5h8.13l.383-7.986h2.377v7.986h12.1a7.342 7.342 0 01-.25-1.924 6.591 6.591 0 016.615-6.955z"/>
	<path d="M7.675 28.673a5.11 5.11 0 003.35.4 5.488 5.488 0 003.152-1.969c1.827-2.278 1.068-5.371-.918-7.431-1.2-1.247-1.866-1.624-2.807-1.426-1.211.255-2.3 1.606-3.448 3.069-1.8 2.306-3.063 3.79-.826 6.074a6.174 6.174 0 001.497 1.283zM44.257 21.212a11.867 11.867 0 01-8.8-3.906 9.056 9.056 0 00-5.565 3.046c7.985 1.192 11.549 6.546 11.55 15.075v4.407l4.924-.181 1.019-7.021h2.616l-.991 9.552-12.269.423c-2.5 0-4.051 1.87-4.051 4.339 0 2.414 1.585 3.855 4.139 3.855l16.063.034a4.712 4.712 0 004.76-3.763l2.85-18.573c1.279-6.858-2.211-10.622-7.331-11.328a11.872 11.872 0 01-8.914 4.041zM22.485 19.861a9.3 9.3 0 10-9.3-9.3 9.3 9.3 0 009.3 9.3z"/>
	<path d="M44.257 18.596a9.3 9.3 0 10-9.3-9.3 9.3 9.3 0 009.3 9.3zM1.496 40.345v8.494h3.487v-9.076a1.749 1.749 0 00-.349-1.047l-1.5-1.992a1.744 1.744 0 00-2.789 2.094z"/>
</symbol>
<symbol id="checkmark" viewBox="0 0 22 22">
	<g transform="translate(111.949 -1404.051)">
		<circle cx="11" cy="11" r="11" fill="#613983" transform="translate(-111.949 1404.051)"/>
		<path fill="#fff" d="M-103.355 1420.074q-.238-.523-.291-.655l-.4-.933q-.185-.43-.318-.7l-.245-.5a4.65 4.65 0 00-1.676-1.977 3.323 3.323 0 012.017-.958 1.092 1.092 0 01.927.453 4.259 4.259 0 01.576 1.572 34.967 34.967 0 012.68-4.502 6.009 6.009 0 011.472-1.483 3.16 3.16 0 011.628-.364 4.408 4.408 0 011.377.245 17.059 17.059 0 00-3.777 3.719 44.906 44.906 0 00-3.97 6.083z"/>
	</g>
</symbol>
<symbol id="down-arrow" viewBox="0 0 512 512">
	<path d="M509.121 125.966a9.821 9.821 0 00-13.893 0L256.005 365.194 16.771 125.966a9.821 9.821 0 00-13.893 0 9.821 9.821 0 000 13.893l246.18 246.175a9.819 9.819 0 0013.893 0l246.17-246.175a9.821 9.821 0 000-13.893z"/>
</symbol>
<symbol id="hourglass" viewBox="0 0 48.52 65.952">
	<path d="M38.992 53.136c-1.732-4.5-6.965-9.792-13.326-10.491V28.47a14.253 14.253 0 003.283-1.092 14.905 14.905 0 008.181-9.4 61.074 61.074 0 00-12.141 1.8c-7.164 1.828-10.179 4.5-10.179 4.5a11.25 11.25 0 008.043 4.4v13.975c-6.362.7-11.594 5.994-13.325 10.492 2.139 1 7.516 2.243 14.731 2.243s12.595-1.256 14.733-2.252z"/>
	<path d="M32.959 32.087c5.722-3.293 11.844-9.43 11.844-16.769v-5c2.294-.766 3.718-1.7 3.718-2.54v-2.9c0-2.358-9.748-4.883-24.26-4.883S.001 2.52.001 4.878v2.9c0 .837 1.424 1.774 3.719 2.541v5c0 7.562 6.281 13.713 12.159 16.947a1.258 1.258 0 01.594 1 1.184 1.184 0 01-.534.967c-5.92 3.25-12.219 9.405-12.219 16.985v4.054c-2.295.766-3.719 1.7-3.719 2.54v2.9c0 2.473 10.375 5.239 24.26 5.239s24.26-2.766 24.26-5.239v-2.9c0-.837-1.424-1.774-3.718-2.54v-4.054c0-7.453-6.216-13.611-12.034-16.889a1.277 1.277 0 01-.678-1.064 1.59 1.59 0 01.868-1.178zm-1.6-2.863a4.814 4.814 0 00-2.547 4.04 4.711 4.711 0 002.454 3.979c4.959 2.838 10.259 8 10.259 13.973v4.479c-3.673 2.31-11.645 3.2-17.262 3.2s-13.588-.887-17.261-3.2v-4.48c0-6.977 7.492-12.271 10.713-14.222a4.423 4.423 0 00.013-7.444c-4.006-2.488-10.726-7.645-10.726-14.233v-4.147a100.569 100.569 0 0034.523 0v4.147c-.003 6.019-5.479 11.253-10.168 13.908z"/>
</symbol>
<symbol id="medication" viewBox="0 0 79.932 56.093">
	<path d="M8.281 20.651l13.641-8.04 6.213 10.537a18.28 18.28 0 019.693-2.84c4.07.076 8.537 1.5 10.426 1.856a13.162 13.162 0 002.18-15.85c-4.6-7.655-13.027-7.231-17.671-4.561L6.327 17.335a12.926 12.926 0 00-4.564 17.66c4.061 6.891 11.84 7.99 18.144 4.284a14.716 14.716 0 01.289-4.584c-4.643 3.2-10.823 4.654-15.108-1.645-2.531-3.712-1.272-9.665 3.193-12.399z"/>
	<path d="M69.612 30.718L39.55 24.48c-7.973-1.059-13.206 2.5-15.251 10.019-1.842 6.78 2.707 13.313 10.011 15.242l30.056 6.234c5.241.606 13.213-.875 15.25-10.013 1.798-8.069-4.411-14.014-10.004-15.244zm6.236 14.453c-1.532 7.478-8.336 7.532-10.682 7.041l-15.523-3.221 3.677-17.722 15.5 3.217a9.026 9.026 0 017.028 10.685z"/>
</symbol>
<symbol id="play-button" viewBox="0 0 162 162">
	<g fill="none" stroke="#fff" stroke-width="10">
		<circle cx="81" cy="81" r="81" stroke="none"/>
		<circle cx="81" cy="81" r="76"/>
	</g>
	<path fill="#fff" d="M60.012 46.75l58.012 33.48L60 113.73z"/>
</symbol>
<symbol id="support" viewBox="0 0 53.307 63.071">
	<path d="M26.653 30.871a15.436 15.436 0 10-15.437-15.437 15.436 15.436 0 0015.437 15.437zM15.54 52.713a55.383 55.383 0 0016.075-6.15 6.149 6.149 0 016.152 6.15c0 3.585-4.324 7.739-7.578 10.358h23.118v-8.735c0-12.469-11.933-19.608-26.654-19.608S0 41.867 0 54.336v8.734h23.007c-3.24-2.555-7.467-6.606-7.467-10.357z"/>
</symbol>
</svg>