<?xml version="1.0" standalone="no"?>
<!DOCTYPE svg PUBLIC "-//W3C//DTD SVG 20010904//EN"
 "http://www.w3.org/TR/2001/REC-SVG-20010904/DTD/svg10.dtd">
<svg version="1.0" xmlns="http://www.w3.org/2000/svg"
 width="260.000000pt" height="260.000000pt" viewBox="0 0 260.000000 260.000000"
 preserveAspectRatio="xMidYMid meet">
<metadata>
Created by potrace 1.14, written by Peter Selinger 2001-2017
</metadata>
<g transform="translate(0.000000,260.000000) scale(0.100000,-0.100000)"
fill="#000000" stroke="none">
<path d="M0 1300 l0 -1300 1300 0 1300 0 0 1300 0 1300 -1300 0 -1300 0 0
-1300z m1036 982 c0 -8 22 -27 49 -43 51 -28 81 -37 70 -19 -12 20 6 9 41 -25
20 -19 40 -33 44 -30 5 3 12 1 15 -5 4 -6 3 -10 -2 -9 -27 5 -35 -1 -23 -16 9
-11 16 -13 24 -5 5 5 17 10 27 10 19 0 71 -49 64 -61 -3 -4 7 -7 22 -6 17 1
27 -3 26 -10 -2 -8 4 -10 14 -6 11 4 14 3 9 -6 -6 -9 0 -10 21 -5 24 6 26 5
15 -8 -11 -13 -9 -15 14 -15 18 0 22 2 13 8 -8 5 -9 9 -4 9 6 0 21 -12 34 -26
29 -30 81 -59 81 -45 0 6 7 8 16 4 12 -4 13 -8 3 -13 -16 -10 44 -42 64 -34 8
3 18 1 22 -5 3 -6 -2 -11 -12 -11 -15 0 -14 -4 7 -20 14 -11 36 -23 50 -27 36
-9 129 -85 127 -103 -1 -9 5 -14 16 -13 10 0 16 -1 13 -4 -8 -8 46 -53 63 -53
8 0 27 -15 43 -32 23 -25 26 -34 14 -36 -8 -2 -27 4 -43 14 -27 16 -26 15 5
-15 17 -17 32 -33 32 -36 0 -8 -104 48 -108 58 -2 4 -12 7 -22 7 -11 0 -24 9
-30 20 -6 11 -18 20 -26 20 -9 0 -34 15 -57 34 -23 18 -48 31 -56 28 -8 -3
-11 0 -7 7 4 6 2 9 -7 5 -8 -3 -21 1 -29 9 -14 15 -57 32 -70 29 -5 -1 -8 2
-8 8 0 5 -6 10 -14 10 -7 0 -26 12 -41 26 -16 15 -33 28 -39 29 -38 10 -55 18
-52 24 3 4 -4 13 -16 20 -11 7 -18 8 -14 3 6 -10 -82 32 -101 48 -7 6 -13 8
-13 5 0 -3 -10 4 -22 16 -13 11 -30 24 -38 28 -39 17 -130 74 -131 82 -1 5 -2
14 -3 21 0 6 -8 13 -16 15 -13 4 -13 3 0 -6 17 -12 10 -14 -14 -5 -9 3 -12 13
-9 22 4 13 2 12 -10 -3 -9 -11 -17 -25 -17 -32 0 -17 -98 -113 -115 -113 -8 0
-17 -11 -21 -25 -6 -23 -104 -117 -104 -99 0 17 -69 -60 -72 -80 -2 -17 -9
-21 -34 -19 -25 1 -40 -7 -70 -40 l-39 -41 44 37 c25 20 47 35 49 32 7 -7
-139 -155 -180 -181 -21 -13 -38 -32 -38 -42 0 -11 -3 -13 -8 -5 -5 8 -29 -8
-74 -48 -89 -80 -65 -34 29 54 39 37 69 67 66 67 -3 0 4 8 15 19 12 10 22 22
22 26 0 4 -67 -60 -150 -142 -96 -96 -151 -144 -155 -135 -5 14 48 76 159 184
39 38 71 75 72 83 1 8 -2 13 -7 9 -5 -3 -6 -11 -3 -17 4 -7 3 -8 -1 -4 -5 4
-42 -25 -82 -65 -40 -40 -73 -67 -73 -61 0 6 49 58 109 114 61 56 109 105 108
110 -1 4 33 41 76 83 42 43 77 81 77 86 0 5 -5 21 -11 37 -6 15 -10 30 -9 32
1 2 -4 7 -11 12 -7 4 -14 23 -15 41 -1 18 -5 41 -9 50 -4 10 -8 29 -9 42 -2
35 -22 37 -99 7 -65 -25 -83 -45 -52 -57 8 -4 15 -10 15 -16 0 -5 -4 -6 -10
-3 -5 3 -10 4 -10 2 0 -16 55 -167 76 -208 14 -28 23 -53 20 -56 -2 -3 -19 24
-37 58 -17 35 -34 66 -38 69 -3 3 -7 14 -9 24 -2 10 -10 25 -18 33 -8 8 -14
20 -14 26 0 7 4 6 10 -3 5 -8 10 -10 10 -4 0 6 -7 17 -15 24 -8 7 -12 16 -9
22 3 5 0 15 -6 23 -6 8 -9 19 -6 24 4 5 2 12 -4 16 -5 3 -10 11 -10 16 0 6 4
7 10 4 6 -3 10 -2 10 3 0 10 71 44 86 41 22 -4 35 2 28 13 -4 6 -3 8 3 5 6 -4
24 -2 42 3 35 10 45 0 55 -60 9 -60 36 -184 42 -200 4 -11 20 1 59 45 67 73
83 68 19 -6 -30 -35 -23 -30 20 15 36 38 62 74 59 80 -3 6 -3 8 2 4 4 -4 14
-3 22 3 7 6 13 8 13 5 0 -4 9 -2 21 4 11 7 18 14 15 17 -3 3 -12 0 -21 -7 -12
-10 -15 -10 -15 2 0 13 37 51 53 54 4 1 10 2 15 3 4 0 13 15 21 32 9 20 16 27
21 19 5 -9 9 -9 14 -1 4 6 5 15 2 20 -8 12 4 42 14 36 4 -3 13 8 19 23 12 30
39 40 37 14z m66 -17 c16 -14 24 -25 18 -25 -7 0 -25 11 -42 25 -16 14 -24 25
-18 25 7 0 25 -11 42 -25z m-312 -229 c0 -3 -4 -8 -10 -11 -5 -3 -10 -1 -10 4
0 6 5 11 10 11 6 0 10 -2 10 -4z m790 -50 c0 -2 -9 -2 -20 1 -11 3 -20 9 -20
15 0 5 9 4 20 -2 11 -6 20 -12 20 -14z m-785 -136 c-3 -5 -11 -10 -16 -10 -6
0 -7 5 -4 10 3 6 11 10 16 10 6 0 7 -4 4 -10z m-35 -35 c-7 -9 -15 -13 -17
-11 -7 7 7 26 19 26 6 0 6 -6 -2 -15z m253 -232 c9 -71 21 -213 21 -253 l1
-35 -100 -11 c-55 -7 -127 -15 -161 -19 -71 -8 -72 -7 -81 90 -3 33 -8 67 -13
75 -4 8 -8 44 -9 79 -1 35 -4 68 -7 73 -9 14 37 25 135 32 52 4 97 9 100 11 2
3 28 5 56 5 l52 0 6 -47z m644 33 c3 -3 5 -140 4 -234 l-1 -63 -152 3 -153 3
-1 152 -2 152 152 -6 c83 -3 152 -6 153 -7z m428 4 c3 -5 -1 -10 -9 -10 -8 0
-18 5 -21 10 -3 6 1 10 9 10 8 0 18 -4 21 -10z m-278 -57 c-3 -10 -5 -4 -5 12
0 17 2 24 5 18 2 -7 2 -21 0 -30z m323 28 c2 -1 -1 -6 -7 -12 -8 -8 -17 -7
-34 4 -22 16 -22 16 7 12 16 -2 31 -4 34 -4z m-1565 -402 c8 -80 15 -164 15
-187 0 -22 5 -44 10 -47 6 -3 7 -17 4 -31 -3 -13 -2 -24 2 -24 9 0 11 -31 16
-242 2 -73 7 -124 12 -120 5 3 7 -2 3 -11 -3 -9 0 -18 9 -21 8 -3 13 -11 12
-18 -2 -8 5 -12 16 -10 10 2 15 -1 12 -6 -13 -22 70 -23 154 -3 98 24 117 25
75 5 -29 -14 -29 -15 20 -8 28 3 53 10 56 16 4 7 13 6 27 -1 26 -14 42 -14 42
-1 0 6 -8 10 -17 10 -15 0 -16 2 -3 10 23 15 30 12 30 -10 0 -19 5 -20 51 -15
58 7 99 21 99 33 0 5 17 12 38 16 63 10 64 11 51 117 -6 52 -11 135 -11 184 0
63 -3 83 -9 65 -6 -17 -7 -7 -4 33 3 31 1 57 -3 57 -4 0 -7 12 -7 28 0 15 -4
39 -8 55 -7 26 -6 27 20 21 16 -4 30 -10 33 -14 6 -7 11 -8 170 -13 182 -6
172 -5 166 -24 -3 -10 -8 -45 -11 -77 -3 -33 -8 -63 -11 -68 -12 -18 -19 -97
-22 -251 -1 -50 -6 -76 -12 -72 -6 4 -8 11 -4 16 3 5 0 17 -7 25 -8 10 -10 37
-4 97 4 45 9 111 11 146 2 36 10 69 17 74 9 6 9 10 0 13 -7 3 -9 12 -6 20 3 7
10 11 16 7 7 -4 8 0 4 11 -4 10 -7 23 -7 29 0 9 -35 13 -117 14 -69 2 -119 7
-121 13 -2 5 -21 10 -42 10 l-39 0 4 -57 c3 -32 7 -105 10 -163 2 -58 7 -144
11 -192 l6 -88 44 0 c41 0 45 -2 51 -30 3 -16 11 -30 19 -30 22 0 64 22 58 31
-6 10 8 12 45 9 13 -1 21 2 18 7 -3 5 4 9 16 10 12 0 16 -1 10 -4 -10 -3 -9
-8 2 -19 8 -9 19 -13 24 -10 5 3 8 -2 7 -12 -1 -14 8 -17 56 -16 59 1 82 14
85 49 4 43 6 113 4 165 -1 47 -4 57 -23 65 -36 16 -35 57 1 93 17 17 31 33 31
35 0 3 -15 8 -33 11 -46 9 -77 33 -77 61 0 32 40 59 80 53 25 -4 30 -1 30 17
0 11 -9 38 -20 60 -27 53 -25 72 11 106 30 28 31 32 36 136 4 71 10 111 19
121 12 11 14 6 14 -38 0 -32 -4 -49 -10 -45 -5 3 -10 -3 -10 -15 0 -12 4 -19
9 -16 5 3 7 -23 6 -61 -3 -60 -1 -70 20 -91 14 -13 32 -42 42 -63 9 -22 20
-39 23 -39 3 0 12 24 20 52 22 88 86 132 132 91 31 -28 22 -60 -32 -117 l-49
-52 64 4 c72 5 115 -13 115 -48 0 -24 -15 -33 -65 -40 -25 -3 -40 -10 -40 -19
0 -19 53 -33 77 -20 26 14 54 -4 79 -53 l22 -42 19 53 c22 58 56 84 83 61 24
-20 18 -41 -25 -85 l-41 -42 53 4 c38 3 59 0 73 -11 20 -16 20 -16 1 -31 -11
-8 -33 -15 -49 -15 -38 0 -31 -20 13 -35 40 -13 47 -28 30 -60 -19 -35 -40
-39 -73 -14 l-29 21 7 -31 c11 -53 -33 -82 -69 -45 -15 15 -22 8 -17 -19 1 -5
-3 -6 -8 -3 -5 4 -13 -3 -16 -14 -15 -47 -122 -130 -167 -130 -26 0 -12 27 20
38 15 5 44 25 64 45 21 19 41 37 45 39 19 8 63 79 63 100 l0 23 -23 -27 c-32
-38 -64 -53 -83 -37 -22 18 -17 34 21 68 l36 31 -39 0 c-43 0 -67 19 -60 47 3
12 -6 25 -29 40 l-33 22 6 -42 c4 -23 11 -43 15 -45 4 -2 5 -10 2 -19 -5 -12
-3 -14 6 -8 10 5 11 2 7 -13 -4 -11 -3 -23 3 -26 10 -7 4 -44 -11 -63 -5 -7
-7 -17 -3 -23 3 -5 -1 -13 -9 -16 -9 -3 -16 -12 -16 -18 0 -21 -109 -116 -133
-116 -11 0 -1 32 15 47 14 13 18 13 18 2 0 -8 9 1 20 19 21 34 37 43 26 15 -6
-15 -4 -14 14 2 15 14 17 20 8 26 -9 6 -8 10 5 15 9 3 14 10 11 15 -3 5 5 23
17 40 21 29 21 33 6 44 -9 7 -17 18 -17 26 0 11 2 11 10 -1 9 -13 10 -13 10 0
0 26 -14 40 -30 30 -42 -27 -83 0 -101 64 l-10 37 -34 -28 -34 -28 -1 -120
c-1 -66 -5 -129 -10 -140 l-9 -20 -1 20 c-1 17 -3 16 -16 -8 -8 -15 -22 -27
-32 -28 -10 0 -12 -3 -4 -6 30 -12 7 -23 -48 -23 -43 0 -60 -4 -60 -13 0 -22
11 -27 34 -15 11 6 32 13 46 14 14 2 39 5 56 9 28 5 104 -17 104 -31 0 -4 -16
-4 -35 -2 -42 5 -31 -10 17 -23 29 -7 28 -8 -12 -4 -87 9 -106 4 -163 -44 -33
-27 -51 -19 -79 38 -15 29 -26 57 -23 61 3 4 -3 11 -12 14 -10 4 -30 -3 -52
-18 -40 -29 -59 -24 -22 5 29 24 9 25 -44 3 -31 -13 -40 -13 -47 -2 -8 10 -9
10 -5 -2 2 -8 15 -15 28 -16 24 0 29 -4 29 -24 0 -14 -48 -2 -77 19 -12 9 -20
22 -18 28 5 16 -10 16 -94 2 -36 -6 -74 -18 -83 -27 -15 -12 -18 -13 -18 -1
-1 8 -10 3 -25 -14 -16 -17 -25 -23 -25 -14 0 15 -20 27 -46 27 -9 0 -13 -4
-10 -9 4 -5 -4 -7 -16 -3 -14 3 -19 1 -14 -6 5 -8 2 -10 -8 -6 -9 3 -14 10
-11 14 3 5 0 12 -6 16 -14 8 -31 -17 -19 -31 5 -7 -10 -10 -46 -9 -58 0 -89
14 -33 14 37 1 80 25 57 32 -7 3 -26 1 -43 -3 -31 -8 -79 -19 -105 -23 -34 -6
-67 -20 -97 -43 l-33 -24 0 23 c-1 60 -2 68 -8 68 -4 0 -18 -13 -32 -30 l-25
-30 -74 12 c-67 10 -75 9 -87 -7 -12 -17 -15 -17 -39 -1 -14 9 -23 21 -20 26
3 6 52 8 108 7 93 -3 104 -1 119 18 15 19 15 21 0 39 -11 12 -12 16 -3 11 9
-5 12 -3 9 6 -3 8 -9 13 -14 12 -11 -2 -11 -1 -18 217 -5 154 -23 382 -56 687
-6 50 -10 113 -9 140 1 47 11 -32 44 -338z m1590 371 c3 -6 -1 -7 -9 -4 -18 7
-21 14 -7 14 6 0 13 -4 16 -10z m-835 -582 c0 -38 -10 -31 -16 12 -4 21 -2 30
5 25 6 -3 11 -20 11 -37z m-236 23 l38 -1 -7 -177 c-3 -97 -9 -181 -12 -186
-6 -10 -349 -5 -358 5 -7 6 -8 52 -6 241 l1 128 153 -5 c83 -3 169 -5 191 -5z
m343 -198 c3 -7 -8 -11 -29 -10 -27 2 -33 -2 -33 -18 0 -24 43 -34 56 -13 6 9
9 9 9 1 0 -21 -31 -32 -62 -21 -21 8 -28 16 -28 37 0 15 3 31 7 35 11 11 76 2
80 -11z m-847 -123 c0 -5 -4 -10 -10 -10 -5 0 -10 5 -10 10 0 6 5 10 10 10 6
0 10 -4 10 -10z m595 -180 c-3 -5 -11 -10 -16 -10 -6 0 -7 5 -4 10 3 6 11 10
16 10 6 0 7 -4 4 -10z m595 -44 c0 -3 -4 -8 -10 -11 -5 -3 -10 -1 -10 4 0 6 5
11 10 11 6 0 10 -2 10 -4z m180 -38 c0 -10 -31 -10 -48 0 -8 6 -2 9 18 9 16 0
30 -4 30 -9z m-1027 -15 c-7 -2 -19 -2 -25 0 -7 3 -2 5 12 5 14 0 19 -2 13 -5z
m152 -44 c-11 -4 -28 -8 -38 -8 -14 -1 -15 2 -5 12 6 8 23 11 37 9 23 -5 24
-6 6 -13z m-255 0 c0 -4 -11 -6 -25 -6 -13 0 -22 3 -20 8 6 9 45 8 45 -2z"/>
<path d="M1110 2180 c0 -5 5 -10 11 -10 5 0 7 5 4 10 -3 6 -8 10 -11 10 -2 0
-4 -4 -4 -10z"/>
<path d="M972 2126 c-11 -12 -22 -30 -26 -40 -6 -17 -5 -17 11 -5 22 17 34 30
50 50 20 25 -13 20 -35 -5z m28 11 c0 -2 -10 -12 -22 -23 l-23 -19 19 23 c18
21 26 27 26 19z"/>
<path d="M1175 2105 c32 -26 45 -31 45 -16 0 9 -55 41 -69 41 -3 0 8 -11 24
-25z"/>
<path d="M1267 2115 c3 -9 8 -13 11 -10 3 3 13 -2 23 -11 16 -14 17 -14 15 1
-3 18 -23 35 -43 35 -7 0 -10 -7 -6 -15z"/>
<path d="M1230 2080 c0 -15 21 -23 32 -12 6 6 2 11 -11 15 -12 3 -21 1 -21 -3z"/>
<path d="M941 2027 c-13 -21 -12 -21 5 -5 10 10 16 20 13 22 -3 3 -11 -5 -18
-17z"/>
<path d="M1255 2040 c3 -5 13 -10 21 -10 8 0 12 5 9 10 -3 6 -13 10 -21 10 -8
0 -12 -4 -9 -10z"/>
<path d="M1326 2039 c3 -6 25 -20 48 -30 36 -16 41 -25 11 -19 -5 1 -5 -4 2
-11 7 -7 27 -14 45 -16 18 -2 37 -8 42 -13 6 -6 18 -10 28 -10 10 0 18 -5 18
-11 0 -7 9 -9 22 -6 12 4 32 -1 47 -12 42 -29 55 -35 48 -23 -11 17 -94 62
-116 62 -12 0 -21 4 -21 10 0 11 -62 45 -130 72 -53 21 -53 21 -44 7z"/>
<path d="M679 1883 l-24 -28 28 24 c25 23 32 31 24 31 -2 0 -14 -12 -28 -27z"/>
<path d="M1550 1875 c0 -2 11 -12 24 -21 19 -12 29 -13 43 -5 17 10 17 10 1
12 -32 3 -36 4 -44 12 -8 8 -24 10 -24 2z"/>
<path d="M1655 1851 c-3 -6 10 -13 30 -17 32 -6 67 -36 77 -66 3 -7 10 -8 17
-4 17 11 -21 51 -71 77 -43 22 -45 22 -53 10z"/>
<path d="M1610 1835 c0 -6 87 -45 98 -44 6 0 -88 49 -95 49 -2 0 -3 -2 -3 -5z"/>
<path d="M570 1785 c-11 -13 -10 -14 4 -9 9 3 16 10 16 15 0 13 -6 11 -20 -6z"/>
<path d="M479 1693 l-34 -37 32 25 c26 20 50 49 40 49 -2 0 -19 -17 -38 -37z"/>
<path d="M905 1598 c-43 -5 -80 -10 -82 -11 -4 -5 39 -121 49 -134 7 -8 29
-11 69 -7 37 3 59 1 59 -6 0 -5 -21 -11 -47 -11 -73 -2 -75 -2 -84 -27 -6 -17
-5 -21 3 -16 7 5 9 2 6 -7 -3 -8 0 -29 8 -47 13 -31 15 -32 74 -32 59 0 60 0
60 28 -1 44 -26 271 -31 275 -2 2 -40 -1 -84 -5z"/>
<path d="M740 1581 c-49 -7 -47 0 -42 -108 l2 -31 63 4 c86 6 94 10 72 34 -9
10 -14 24 -10 30 9 15 -14 80 -28 78 -7 0 -32 -4 -57 -7z"/>
<path d="M723 1430 c-13 -5 -23 -15 -23 -22 0 -9 3 -8 10 2 6 10 8 -2 4 -36
-4 -32 -2 -54 4 -58 6 -4 8 -14 5 -23 -6 -14 0 -15 42 -10 26 4 62 7 80 7 l33
0 -15 53 c-23 79 -34 97 -57 97 -18 0 -19 -2 -6 -11 14 -10 6 -9 -45 7 -5 1
-20 -1 -32 -6z"/>
<path d="M1380 1576 c0 -13 -3 -38 -6 -55 l-7 -32 44 5 c24 2 52 5 62 5 12 1
15 5 11 13 -4 7 -9 23 -10 36 -5 45 -12 52 -54 52 -35 0 -40 -3 -40 -24z"/>
<path d="M1492 1545 c12 -30 24 -52 28 -50 5 3 11 -1 13 -7 3 -7 6 -8 6 -3 1
13 71 7 71 -6 0 -5 -22 -9 -49 -9 -58 0 -72 -20 -47 -69 20 -38 20 -47 1 -31
-8 7 -17 28 -21 49 -9 51 -17 57 -71 60 l-48 2 -2 -71 -3 -70 43 0 c23 0 87
-3 141 -7 l99 -6 -6 84 c-4 46 -7 108 -7 137 l0 52 -84 0 -84 0 20 -55z"/>
<path d="M2111 806 c-9 -11 -6 -15 19 -18 32 -5 37 1 18 20 -15 15 -23 15 -37
-2z"/>
<path d="M1783 610 c0 -36 2 -50 4 -32 2 17 2 47 0 65 -2 17 -4 3 -4 -33z"/>
<path d="M603 615 c0 -27 2 -38 4 -22 2 15 2 37 0 50 -2 12 -4 0 -4 -28z"/>
<path d="M1350 518 c19 -5 38 -14 41 -20 4 -7 9 -6 13 1 13 20 -5 31 -47 30
l-42 -1 35 -10z"/>
<path d="M1566 487 c3 -10 9 -15 12 -12 3 3 0 11 -7 18 -10 9 -11 8 -5 -6z"/>
<path d="M2085 490 c-3 -6 1 -7 9 -4 18 7 21 14 7 14 -6 0 -13 -4 -16 -10z"/>
<path d="M828 453 c7 -3 16 -2 19 1 4 3 -2 6 -13 5 -11 0 -14 -3 -6 -6z"/>
<path d="M1673 453 c9 -2 23 -2 30 0 6 3 -1 5 -18 5 -16 0 -22 -2 -12 -5z"/>
<path d="M1595 390 c10 -11 20 -20 22 -20 2 0 -2 9 -9 20 -7 11 -17 20 -22 20
-5 0 -1 -9 9 -20z"/>
<path d="M1645 361 c-3 -6 -11 -9 -16 -6 -5 4 -9 2 -9 -4 0 -18 17 -21 30 -6
7 9 10 18 7 21 -3 3 -8 0 -12 -5z"/>
<path d="M896 970 c13 -33 38 -115 36 -122 -1 -5 6 -8 15 -9 43 -2 136 1 140
4 2 2 6 34 10 70 l6 66 -107 3 c-91 3 -105 1 -100 -12z"/>
<path d="M762 905 l-3 -75 74 0 c40 0 76 2 79 5 8 8 -3 55 -12 50 -5 -3 -6 4
-3 15 3 11 0 34 -7 50 -12 28 -16 30 -69 30 l-57 0 -2 -75z"/>
<path d="M774 809 c-4 -7 -8 -44 -10 -84 l-3 -72 159 -7 c88 -4 164 -4 170 -1
7 4 8 128 1 167 -1 5 -121 5 -141 -1 -5 -1 -4 -25 2 -91 2 -14 9 -31 16 -38
17 -18 15 -33 -3 -26 -15 6 -35 62 -35 99 0 31 -28 65 -53 65 -18 0 -19 -2 -7
-10 9 -6 10 -10 3 -10 -6 0 -15 5 -18 10 -9 14 -72 13 -81 -1z"/>
</g>
</svg>
